<svg width="18" height="21" viewBox="0 0 18 21" fill="none" xmlns="http://www.w3.org/2000/svg">
<path d="M17.621 6.45C16.571 1.83 12.541 -0.25 9.001 -0.25H8.991C5.461 -0.25 1.421 1.82 0.370999 6.44C-0.799001 11.6 2.361 15.97 5.221 18.72C6.23472 19.7012 7.5902 20.2498 9.001 20.25C10.361 20.25 11.721 19.74 12.771 18.72C15.631 15.97 18.791 11.61 17.621 6.45ZM9.001 11.46C8.58734 11.46 8.17772 11.3785 7.79555 11.2202C7.41337 11.0619 7.06612 10.8299 6.77361 10.5374C6.48111 10.2449 6.24908 9.89763 6.09078 9.51545C5.93248 9.13328 5.851 8.72366 5.851 8.31C5.851 7.89634 5.93248 7.48672 6.09078 7.10455C6.24908 6.72237 6.48111 6.37512 6.77361 6.08261C7.06612 5.79011 7.41337 5.55808 7.79555 5.39978C8.17772 5.24148 8.58734 5.16 9.001 5.16C9.83643 5.16 10.6376 5.49187 11.2284 6.08261C11.8191 6.67335 12.151 7.47457 12.151 8.31C12.151 9.14543 11.8191 9.94665 11.2284 10.5374C10.6376 11.1281 9.83643 11.46 9.001 11.46Z" fill="#9CA5BF"/>
</svg>
