<svg width="64" height="22" viewBox="0 0 64 22" fill="none" xmlns="http://www.w3.org/2000/svg">
<path d="M19.3852 16.3829L16.8243 13.822C16.0855 13.0832 14.8831 13.0832 14.1444 13.822L13.0193 14.9471C10.4496 13.6015 8.33788 11.4898 6.99224 8.92008L8.1174 7.79492C8.85619 7.05607 8.85619 5.85384 8.1174 5.115L5.55653 2.55413C4.81769 1.81529 3.61546 1.81529 2.87662 2.55413L0.827913 4.60289C-0.242546 5.6733 -0.276015 7.56031 0.733651 9.91622C1.64383 12.04 3.31435 14.3789 5.43743 16.5019C7.56051 18.625 9.89938 20.2955 12.0232 21.2057C13.165 21.6951 14.1966 21.9394 15.0786 21.9394C16.0163 21.9394 16.7849 21.6631 17.3365 21.1115L19.3852 19.0628C19.7432 18.7049 19.9402 18.229 19.9402 17.7228C19.9403 17.2168 19.7432 16.7409 19.3852 16.3829ZM18.2418 17.9194L16.1931 19.9681C15.6384 20.5228 14.3177 20.4299 12.6601 19.7195C10.7209 18.8884 8.56187 17.3397 6.58075 15.3586C4.59969 13.3775 3.05091 11.2185 2.2198 9.27929C1.50947 7.62175 1.41644 6.30101 1.97118 5.74632L4.01989 3.69762C4.12832 3.58924 4.30467 3.58924 4.41305 3.69762L6.97391 6.25848C7.0823 6.36687 7.0823 6.54327 6.97391 6.65159L5.03451 8.59105L5.27844 9.10596C6.84441 12.4119 9.5275 15.095 12.8335 16.661L13.3484 16.9049L15.2878 14.9655C15.3586 14.8946 15.4414 14.884 15.4843 14.884C15.5273 14.884 15.61 14.8946 15.6808 14.9654L18.2417 17.5263C18.3125 17.5971 18.3231 17.6798 18.3231 17.7228C18.3232 17.7659 18.3126 17.8486 18.2418 17.9194Z" fill="black"/>
<path d="M17.4531 3V11H15.2813V5H15.2344L13.4844 6.04687V4.20312L15.4531 3H17.4531ZM22.2988 11.1094C21.6842 11.1094 21.1387 11.0013 20.6621 10.7852C20.1882 10.5664 19.8145 10.2656 19.541 9.88281C19.2702 9.5 19.1322 9.0599 19.127 8.5625H21.2363C21.2441 8.83854 21.3509 9.05859 21.5566 9.22266C21.765 9.38672 22.0124 9.46875 22.2988 9.46875C22.5202 9.46875 22.7155 9.42187 22.8848 9.32812C23.054 9.23177 23.1868 9.09635 23.2832 8.92188C23.3796 8.7474 23.4264 8.54427 23.4238 8.3125C23.4264 8.07812 23.3796 7.875 23.2832 7.70313C23.1868 7.52865 23.054 7.39453 22.8848 7.30078C22.7155 7.20443 22.5202 7.15625 22.2988 7.15625C22.0697 7.15625 21.8574 7.21224 21.6621 7.32422C21.4694 7.43359 21.3275 7.58594 21.2363 7.78125L19.3301 7.40625L19.6426 3H25.0176V4.73437H21.4238L21.2676 6.5H21.3145C21.4395 6.25781 21.6556 6.05729 21.9629 5.89844C22.2702 5.73698 22.627 5.65625 23.0332 5.65625C23.5098 5.65625 23.9342 5.76693 24.3066 5.98828C24.6816 6.20964 24.9772 6.51562 25.1934 6.90625C25.4121 7.29427 25.5202 7.74219 25.5176 8.25C25.5202 8.80729 25.3874 9.30208 25.1191 9.73437C24.8535 10.1641 24.4798 10.5013 23.998 10.7461C23.5163 10.9883 22.9499 11.1094 22.2988 11.1094ZM29.5791 11.1094C28.9489 11.1094 28.389 11.0013 27.8994 10.7852C27.4124 10.5664 27.0296 10.2656 26.751 9.88281C26.4723 9.5 26.3317 9.0599 26.3291 8.5625H28.5166C28.5192 8.71615 28.5661 8.85417 28.6572 8.97656C28.751 9.09635 28.8786 9.1901 29.04 9.25781C29.2015 9.32552 29.3864 9.35937 29.5947 9.35937C29.7952 9.35937 29.9723 9.32422 30.126 9.25391C30.2796 9.18099 30.3994 9.08073 30.4854 8.95312C30.5713 8.82552 30.613 8.67969 30.6104 8.51562C30.613 8.35417 30.5635 8.21094 30.4619 8.08594C30.363 7.96094 30.2236 7.86328 30.0439 7.79297C29.8643 7.72266 29.6572 7.6875 29.4229 7.6875H28.6104V6.1875H29.4229C29.639 6.1875 29.8291 6.15234 29.9932 6.08203C30.1598 6.01172 30.2887 5.91406 30.3799 5.78906C30.4736 5.66406 30.5192 5.52083 30.5166 5.35937C30.5192 5.20312 30.4814 5.0651 30.4033 4.94531C30.3252 4.82552 30.2158 4.73177 30.0752 4.66406C29.9372 4.59635 29.777 4.5625 29.5947 4.5625C29.3968 4.5625 29.2197 4.59766 29.0635 4.66797C28.9098 4.73828 28.7887 4.83594 28.7002 4.96094C28.6117 5.08594 28.5661 5.22917 28.5635 5.39062H26.4854C26.488 4.90104 26.6221 4.46875 26.8877 4.09375C27.1559 3.71875 27.5231 3.42448 27.9893 3.21094C28.4554 2.9974 28.9906 2.89062 29.5947 2.89062C30.1859 2.89062 30.708 2.99089 31.1611 3.19141C31.6169 3.39193 31.9723 3.66797 32.2275 4.01953C32.4854 4.36849 32.613 4.76823 32.6104 5.21875C32.6156 5.66667 32.4619 6.03385 32.1494 6.32031C31.8395 6.60677 31.4463 6.77604 30.9697 6.82812V6.89062C31.6156 6.96094 32.1012 7.15885 32.4268 7.48437C32.7523 7.80729 32.9124 8.21354 32.9072 8.70312C32.9098 9.17187 32.7692 9.58724 32.4854 9.94922C32.2041 10.3112 31.8122 10.5951 31.3096 10.8008C30.8096 11.0065 30.2327 11.1094 29.5791 11.1094ZM33.877 11V9.4375L36.8613 6.96875C37.0592 6.80469 37.2285 6.65104 37.3691 6.50781C37.5124 6.36198 37.6217 6.21224 37.6973 6.05859C37.7754 5.90495 37.8145 5.73437 37.8145 5.54687C37.8145 5.34115 37.7702 5.16536 37.6816 5.01953C37.5957 4.8737 37.4759 4.76172 37.3223 4.68359C37.1686 4.60286 36.9915 4.5625 36.791 4.5625C36.5905 4.5625 36.4134 4.60286 36.2598 4.68359C36.1087 4.76432 35.9915 4.88281 35.9082 5.03906C35.8249 5.19531 35.7832 5.38542 35.7832 5.60937H33.7207C33.7207 5.04687 33.847 4.5625 34.0996 4.15625C34.3522 3.75 34.709 3.4375 35.1699 3.21875C35.6309 3 36.1712 2.89062 36.791 2.89062C37.4316 2.89062 37.9863 2.99349 38.4551 3.19922C38.9264 3.40234 39.2897 3.6888 39.5449 4.05859C39.8027 4.42839 39.9316 4.86198 39.9316 5.35937C39.9316 5.66667 39.8678 5.97266 39.7402 6.27734C39.6126 6.57943 39.3835 6.91406 39.0527 7.28125C38.722 7.64844 38.252 8.08594 37.6426 8.59375L36.8926 9.21875V9.26563H40.0176V11H33.877ZM40.9883 11V9.4375L43.9727 6.96875C44.1706 6.80469 44.3398 6.65104 44.4805 6.50781C44.6237 6.36198 44.7331 6.21224 44.8086 6.05859C44.8867 5.90495 44.9258 5.73437 44.9258 5.54687C44.9258 5.34115 44.8815 5.16536 44.793 5.01953C44.707 4.8737 44.5872 4.76172 44.4336 4.68359C44.2799 4.60286 44.1029 4.5625 43.9023 4.5625C43.7018 4.5625 43.5247 4.60286 43.3711 4.68359C43.2201 4.76432 43.1029 4.88281 43.0195 5.03906C42.9362 5.19531 42.8945 5.38542 42.8945 5.60937H40.832C40.832 5.04687 40.9583 4.5625 41.2109 4.15625C41.4635 3.75 41.8203 3.4375 42.2813 3.21875C42.7422 3 43.2826 2.89062 43.9023 2.89062C44.543 2.89062 45.0977 2.99349 45.5664 3.19922C46.0378 3.40234 46.401 3.6888 46.6563 4.05859C46.9141 4.42839 47.043 4.86198 47.043 5.35937C47.043 5.66667 46.9792 5.97266 46.8516 6.27734C46.724 6.57943 46.4948 6.91406 46.1641 7.28125C45.8333 7.64844 45.3633 8.08594 44.7539 8.59375L44.0039 9.21875V9.26563H47.1289V11H40.9883Z" fill="#C42A33"/>
</svg>