<svg width="44" height="25" viewBox="0 0 44 25" fill="none" xmlns="http://www.w3.org/2000/svg">
<path d="M19.3852 19.3829L16.8243 16.822C16.0855 16.0832 14.8831 16.0832 14.1444 16.822L13.0193 17.9471C10.4496 16.6015 8.33788 14.4898 6.99224 11.9201L8.1174 10.7949C8.85619 10.0561 8.85619 8.85384 8.1174 8.115L5.55653 5.55413C4.81769 4.81529 3.61546 4.81529 2.87662 5.55413L0.827913 7.60289C-0.242546 8.6733 -0.276015 10.5603 0.733651 12.9162C1.64383 15.04 3.31435 17.3789 5.43743 19.5019C7.56051 21.625 9.89938 23.2955 12.0232 24.2057C13.165 24.6951 14.1966 24.9394 15.0786 24.9394C16.0163 24.9394 16.7849 24.6631 17.3365 24.1115L19.3852 22.0628C19.7432 21.7049 19.9402 21.229 19.9402 20.7228C19.9403 20.2168 19.7432 19.7409 19.3852 19.3829ZM18.2418 20.9194L16.1931 22.9681C15.6384 23.5228 14.3177 23.4299 12.6601 22.7195C10.7209 21.8884 8.56187 20.3397 6.58075 18.3586C4.59969 16.3775 3.05091 14.2185 2.2198 12.2793C1.50947 10.6218 1.41644 9.30101 1.97118 8.74632L4.01989 6.69762C4.12832 6.58924 4.30467 6.58924 4.41305 6.69762L6.97391 9.25848C7.0823 9.36687 7.0823 9.54327 6.97391 9.65159L5.03451 11.5911L5.27844 12.106C6.84441 15.4119 9.5275 18.095 12.8335 19.661L13.3484 19.9049L15.2878 17.9655C15.3586 17.8946 15.4414 17.884 15.4843 17.884C15.5273 17.884 15.61 17.8946 15.6808 17.9654L18.2417 20.5263C18.3125 20.5971 18.3231 20.6798 18.3231 20.7228C18.3232 20.7659 18.3126 20.8486 18.2418 20.9194Z" fill="black"/>
<path d="M19.1439 3.36364V15H15.9848V6.27273H15.9167L13.3712 7.79545V5.11364L16.2348 3.36364H19.1439ZM21.5331 15V12.7273L25.8741 9.13636C26.1619 8.89773 26.4081 8.67424 26.6127 8.46591C26.821 8.25379 26.9801 8.03598 27.09 7.8125C27.2036 7.58902 27.2604 7.34091 27.2604 7.06818C27.2604 6.76894 27.196 6.51326 27.0672 6.30114C26.9422 6.08901 26.768 5.92614 26.5445 5.8125C26.321 5.69508 26.0634 5.63636 25.7718 5.63636C25.4801 5.63636 25.2225 5.69508 24.9991 5.8125C24.7794 5.92992 24.6089 6.10227 24.4877 6.32955C24.3665 6.55682 24.3059 6.83333 24.3059 7.15909H21.3059C21.3059 6.34091 21.4896 5.63636 21.857 5.04545C22.2244 4.45455 22.7434 4 23.4138 3.68182C24.0843 3.36364 24.8703 3.20455 25.7718 3.20455C26.7036 3.20455 27.5104 3.35417 28.1922 3.65341C28.8778 3.94886 29.4062 4.36553 29.7775 4.90341C30.1525 5.44129 30.34 6.07197 30.34 6.79545C30.34 7.24242 30.2472 7.6875 30.0616 8.13068C29.8759 8.57008 29.5426 9.05682 29.0616 9.59091C28.5805 10.125 27.8968 10.7614 27.0104 11.5L25.9195 12.4091V12.4773H30.465V15H21.5331ZM36.4223 15.1591C35.5057 15.1591 34.6913 15.0019 33.9792 14.6875C33.2708 14.3693 32.714 13.9318 32.3087 13.375C31.9034 12.8182 31.6989 12.178 31.6951 11.4545H34.8769C34.8807 11.678 34.9489 11.8788 35.0814 12.0568C35.2178 12.2311 35.4034 12.3674 35.6383 12.4659C35.8731 12.5644 36.142 12.6136 36.4451 12.6136C36.7367 12.6136 36.9943 12.5625 37.2178 12.4602C37.4413 12.3542 37.6155 12.2083 37.7405 12.0227C37.8655 11.8371 37.9261 11.625 37.9223 11.3864C37.9261 11.1515 37.8542 10.9432 37.7064 10.7614C37.5625 10.5795 37.3598 10.4375 37.0985 10.3352C36.8371 10.233 36.536 10.1818 36.1951 10.1818H35.0133V8H36.1951C36.5095 8 36.786 7.94886 37.0246 7.84659C37.267 7.74432 37.4545 7.60227 37.5871 7.42045C37.7235 7.23864 37.7898 7.0303 37.786 6.79545C37.7898 6.56818 37.7348 6.36742 37.6212 6.19318C37.5076 6.01894 37.3485 5.88258 37.1439 5.78409C36.9432 5.68561 36.7102 5.63636 36.4451 5.63636C36.1572 5.63636 35.8996 5.6875 35.6723 5.78977C35.4489 5.89205 35.2727 6.03409 35.1439 6.21591C35.0151 6.39773 34.9489 6.60606 34.9451 6.84091H31.9223C31.9261 6.12879 32.1212 5.5 32.5076 4.95455C32.8977 4.40909 33.4318 3.98106 34.1098 3.67045C34.7879 3.35985 35.5663 3.20455 36.4451 3.20455C37.3049 3.20455 38.0644 3.35038 38.7235 3.64205C39.3864 3.93371 39.9034 4.33523 40.2746 4.84659C40.6496 5.35417 40.8352 5.93561 40.8314 6.59091C40.839 7.24242 40.6155 7.77651 40.161 8.19318C39.7102 8.60985 39.1383 8.85606 38.4451 8.93182V9.02273C39.3845 9.125 40.0909 9.41288 40.5644 9.88636C41.0379 10.3561 41.2708 10.947 41.2633 11.6591C41.267 12.3409 41.0625 12.9451 40.6496 13.4716C40.2405 13.9981 39.6705 14.411 38.9394 14.7102C38.2121 15.0095 37.3731 15.1591 36.4223 15.1591Z" fill="#C42A33"/>
</svg>
