<svg width="38" height="30" viewBox="0 0 38 30" fill="none" xmlns="http://www.w3.org/2000/svg">
<path d="M16.625 10H21.375M10.7033 27.5H27.2967C31.6667 27.5 33.4083 25.3875 33.6142 22.8125L34.4375 12.4875C34.4888 11.8473 34.3733 11.2056 34.098 10.602C33.8227 9.99846 33.3936 9.44588 32.8371 8.97844C32.2806 8.51099 31.6086 8.13862 30.8627 7.88433C30.1167 7.63004 29.3126 7.49923 28.5 7.5C27.5342 7.5 26.6475 7.0625 26.2042 6.3875L25.0642 4.575C24.3358 3.4375 22.4358 2.5 20.8208 2.5H17.195C15.5642 2.5 13.6642 3.4375 12.9358 4.575L11.7958 6.3875C11.3525 7.0625 10.4658 7.5 9.5 7.5C6.06417 7.5 3.34083 9.7875 3.5625 12.4875L4.38583 22.8125C4.57583 25.3875 6.33333 27.5 10.7033 27.5Z" stroke="white" stroke-width="1.5" stroke-linecap="round" stroke-linejoin="round"/>
<path d="M19 22.5C21.8342 22.5 24.1458 20.675 24.1458 18.4375C24.1458 16.2 21.8342 14.375 19 14.375C16.1658 14.375 13.8542 16.2 13.8542 18.4375C13.8542 20.675 16.1658 22.5 19 22.5Z" stroke="white" stroke-width="1.5" stroke-linecap="round" stroke-linejoin="round"/>
</svg>
