<svg width="20" height="20" viewBox="0 0 20 20" fill="none" xmlns="http://www.w3.org/2000/svg">
<path d="M16.0417 4.01478L11.2417 0.65645C9.93333 -0.260216 7.925 -0.210216 6.66667 0.764784L2.49167 4.02312C1.65833 4.67312 1 6.00645 1 7.05645V12.8065C1 14.9315 2.725 16.6648 4.85 16.6648H13.8333C15.9583 16.6648 17.6833 14.9398 17.6833 12.8148V7.16478C17.6833 6.03978 16.9583 4.65645 16.0417 4.01478ZM9.96667 13.3315C9.96667 13.6731 9.68333 13.9565 9.34167 13.9565C9 13.9565 8.71667 13.6731 8.71667 13.3315V10.8315C8.71667 10.4898 9 10.2065 9.34167 10.2065C9.68333 10.2065 9.96667 10.4898 9.96667 10.8315V13.3315Z" fill="black" fill-opacity="0.84"/>
</svg>
