<svg width="34" height="34" viewBox="0 0 34 34" fill="none" xmlns="http://www.w3.org/2000/svg">
<path d="M27.0867 12.92C26.5342 12.92 26.095 13.3592 26.095 13.9117V16.15C26.095 21.165 22.015 25.245 17 25.245C11.985 25.245 7.90499 21.165 7.90499 16.15V13.8975C7.90499 13.345 7.46583 12.9058 6.91333 12.9058C6.36083 12.9058 5.92166 13.345 5.92166 13.8975V16.1358C5.92166 21.9017 10.3558 26.6475 16.0083 27.1575V30.175C16.0083 30.7275 16.4475 31.1667 17 31.1667C17.5525 31.1667 17.9917 30.7275 17.9917 30.175V27.1575C23.63 26.6617 28.0783 21.9017 28.0783 16.1358V13.8975C28.0721 13.6378 27.9652 13.3906 27.7801 13.2082C27.5951 13.0258 27.3465 12.9225 27.0867 12.92Z" fill="black"/>
<path d="M16.9972 2.83331C13.5405 2.83331 10.7355 5.63831 10.7355 9.09498V16.3483C10.7355 19.805 13.5405 22.61 16.9972 22.61C20.4538 22.61 23.2588 19.805 23.2588 16.3483V9.09498C23.2588 5.63831 20.4538 2.83331 16.9972 2.83331ZM18.853 12.6791C18.7538 13.0475 18.428 13.2883 18.0597 13.2883C17.9888 13.2883 17.918 13.2741 17.8472 13.26C17.2947 13.1041 16.7138 13.1041 16.1613 13.26C15.708 13.3875 15.2688 13.1183 15.1555 12.6791C15.028 12.24 15.2972 11.7866 15.7363 11.6733C16.5722 11.4466 17.4505 11.4466 18.2863 11.6733C18.7113 11.7866 18.9663 12.24 18.853 12.6791ZM19.6038 9.93081C19.5454 10.09 19.4391 10.2271 19.2996 10.3235C19.1601 10.4199 18.9942 10.4708 18.8247 10.4691C18.7255 10.4691 18.6405 10.455 18.5413 10.4266C17.5497 10.0583 16.4447 10.0583 15.453 10.4266C15.2463 10.4999 15.019 10.489 14.8202 10.3963C14.6215 10.3035 14.4671 10.1363 14.3905 9.93081C14.2347 9.50581 14.4613 9.02415 14.8863 8.88248C16.2499 8.38664 17.7445 8.38664 19.108 8.88248C19.533 9.03831 19.7597 9.50581 19.6038 9.93081Z" fill="black"/>
</svg>
