<svg width="84" height="84" viewBox="0 0 84 84" fill="none" xmlns="http://www.w3.org/2000/svg">
<path d="M81.662 60.5894L70.8739 49.8013C67.7615 46.6889 62.6965 46.6891 59.5845 49.8013L54.8449 54.5409C44.0198 48.8723 35.1241 39.9765 29.4554 29.1514L34.1952 24.4116C37.3075 21.2991 37.3075 16.2346 34.1952 13.1222L23.4074 2.33433C20.2949 -0.778111 15.2304 -0.778111 12.118 2.33433L3.48765 10.9649C-1.02175 15.4741 -1.16273 23.4233 3.09057 33.3477C6.92476 42.2943 13.962 52.147 22.9056 61.0907C31.8493 70.0343 41.702 77.0716 50.6486 80.9058C55.4588 82.9672 59.8045 83.9964 63.5197 83.9964C67.4699 83.9964 70.7077 82.8326 73.0314 80.5089L81.6618 71.8786C83.1697 70.3708 84 68.3661 84 66.2337C84.0002 64.1019 83.1697 62.0971 81.662 60.5894ZM76.8449 67.062L68.2146 75.6923C65.878 78.0287 60.3147 77.6376 53.3317 74.645C45.1627 71.1439 36.0676 64.6198 27.722 56.2741C19.3766 47.9285 12.8522 38.8336 9.3511 30.6646C6.35876 23.6821 5.96689 18.1184 8.30378 15.7817L16.9341 7.15137C17.3909 6.6948 18.1338 6.6948 18.5903 7.15137L29.3782 17.9392C29.8348 18.3958 29.8348 19.1389 29.3782 19.5952L21.2083 27.7654L22.2359 29.9345C28.8326 43.8609 40.1354 55.1639 54.0621 61.7607L56.2312 62.788L64.4011 54.6181C64.6994 54.3198 65.0481 54.2751 65.2291 54.2751C65.41 54.2751 65.7585 54.3196 66.0569 54.6179L76.8447 65.4057C77.143 65.7041 77.1878 66.0526 77.1878 66.2337C77.1882 66.4152 77.1433 66.7637 76.8449 67.062Z" fill="white"/>
</svg>
